%TF.GenerationSoftware,KiCad,Pcbnew,10.0.0-rc1.1*%
%TF.CreationDate,2026-05-07T21:24:46+07:00*%
%TF.ProjectId,Res_Meas,5265735f-4d65-4617-932e-6b696361645f,Rev.01*%
%TF.SameCoordinates,Original*%
%TF.FileFunction,Legend,Bot*%
%TF.FilePolarity,Positive*%
%FSLAX46Y46*%
G04 Gerber Fmt 4.6, Leading zero omitted, Abs format (unit mm)*
G04 Created by KiCad (PCBNEW 10.0.0-rc1.1) date 2026-05-07 21:24:46*
%MOMM*%
%LPD*%
G01*
G04 APERTURE LIST*
%ADD10C,3.200000*%
%ADD11R,1.700000X1.700000*%
%ADD12C,1.700000*%
%ADD13C,0.650000*%
%ADD14O,2.100000X1.000000*%
%ADD15O,1.800000X1.000000*%
%ADD16C,2.400000*%
%ADD17C,0.600000*%
%TA.AperFunction,Profile*%
%ADD18C,0.050000*%
%TD*%
G04 APERTURE END LIST*
%LPC*%
D10*
%TO.C,H3*%
X256392893Y-107807107D03*
%TD*%
D11*
%TO.C,J2*%
X258112893Y-130197107D03*
D12*
X258112893Y-132737107D03*
%TD*%
D13*
%TO.C,J1*%
X186677893Y-121517107D03*
X186677893Y-127297107D03*
D14*
X187177893Y-120087107D03*
D15*
X182997893Y-120087107D03*
D14*
X187177893Y-128727107D03*
D15*
X182997893Y-128727107D03*
%TD*%
D16*
%TO.C,R1*%
X252232893Y-138057107D03*
X252232893Y-122817107D03*
%TD*%
D10*
%TO.C,H4*%
X183402893Y-107787107D03*
%TD*%
%TO.C,H2*%
X256362893Y-142917107D03*
%TD*%
D17*
%TO.C,U1*%
X222222893Y-112637107D03*
X222222893Y-114037107D03*
X222922893Y-111937107D03*
X222922893Y-113337107D03*
X222922893Y-114737107D03*
X223622893Y-112637107D03*
X223622893Y-114037107D03*
X224322893Y-111937107D03*
X224322893Y-113337107D03*
X224322893Y-114737107D03*
X225022893Y-112637107D03*
X225022893Y-114037107D03*
%TD*%
D16*
%TO.C,R2*%
X246212893Y-122817107D03*
X246212893Y-138057107D03*
%TD*%
D10*
%TO.C,H1*%
X183412893Y-142947107D03*
%TD*%
D16*
%TO.C,R3*%
X240132893Y-138057107D03*
X240132893Y-122817107D03*
%TD*%
%LPD*%
D18*
X179872893Y-105257107D02*
G75*
G02*
X180872893Y-104257093I1000007J7D01*
G01*
X179892893Y-145477107D02*
X179872893Y-105257107D01*
X180872893Y-104257107D02*
X258922893Y-104282107D01*
X180892893Y-146477157D02*
G75*
G02*
X179892893Y-145467107I7J1000057D01*
G01*
X258892893Y-146437107D02*
X180892893Y-146477157D01*
X258915786Y-104284214D02*
G75*
G02*
X259915786Y-105284214I14J-999986D01*
G01*
X259892893Y-145437107D02*
G75*
G02*
X258892893Y-146437093I-999993J7D01*
G01*
X259915786Y-105284214D02*
X259892893Y-145437107D01*
M02*
