%TF.GenerationSoftware,KiCad,Pcbnew,10.0.0-rc1.1*%
%TF.CreationDate,2026-05-07T21:24:46+07:00*%
%TF.ProjectId,Res_Meas,5265735f-4d65-4617-932e-6b696361645f,Rev.01*%
%TF.SameCoordinates,Original*%
%TF.FileFunction,Legend,Top*%
%TF.FilePolarity,Positive*%
%FSLAX46Y46*%
G04 Gerber Fmt 4.6, Leading zero omitted, Abs format (unit mm)*
G04 Created by KiCad (PCBNEW 10.0.0-rc1.1) date 2026-05-07 21:24:46*
%MOMM*%
%LPD*%
G01*
G04 APERTURE LIST*
G04 Aperture macros list*
%AMRoundRect*
0 Rectangle with rounded corners*
0 $1 Rounding radius*
0 $2 $3 $4 $5 $6 $7 $8 $9 X,Y pos of 4 corners*
0 Add a 4 corners polygon primitive as box body*
4,1,4,$2,$3,$4,$5,$6,$7,$8,$9,$2,$3,0*
0 Add four circle primitives for the rounded corners*
1,1,$1+$1,$2,$3*
1,1,$1+$1,$4,$5*
1,1,$1+$1,$6,$7*
1,1,$1+$1,$8,$9*
0 Add four rect primitives between the rounded corners*
20,1,$1+$1,$2,$3,$4,$5,0*
20,1,$1+$1,$4,$5,$6,$7,0*
20,1,$1+$1,$6,$7,$8,$9,0*
20,1,$1+$1,$8,$9,$2,$3,0*%
G04 Aperture macros list end*
%ADD10C,0.150000*%
%ADD11C,0.120000*%
%ADD12RoundRect,0.250000X-0.262500X-0.450000X0.262500X-0.450000X0.262500X0.450000X-0.262500X0.450000X0*%
%ADD13RoundRect,0.150000X-0.587500X-0.150000X0.587500X-0.150000X0.587500X0.150000X-0.587500X0.150000X0*%
%ADD14C,3.200000*%
%ADD15RoundRect,0.250001X-1.044999X0.872499X-1.044999X-0.872499X1.044999X-0.872499X1.044999X0.872499X0*%
%ADD16R,1.700000X1.700000*%
%ADD17C,1.700000*%
%ADD18RoundRect,0.075000X0.075000X-0.650000X0.075000X0.650000X-0.075000X0.650000X-0.075000X-0.650000X0*%
%ADD19C,0.650000*%
%ADD20RoundRect,0.150000X-0.425000X0.150000X-0.425000X-0.150000X0.425000X-0.150000X0.425000X0.150000X0*%
%ADD21RoundRect,0.075000X-0.500000X0.075000X-0.500000X-0.075000X0.500000X-0.075000X0.500000X0.075000X0*%
%ADD22O,2.100000X1.000000*%
%ADD23O,1.800000X1.000000*%
%ADD24RoundRect,0.375000X-0.625000X-0.375000X0.625000X-0.375000X0.625000X0.375000X-0.625000X0.375000X0*%
%ADD25RoundRect,0.500000X-0.500000X-1.400000X0.500000X-1.400000X0.500000X1.400000X-0.500000X1.400000X0*%
%ADD26RoundRect,0.250000X0.450000X-0.262500X0.450000X0.262500X-0.450000X0.262500X-0.450000X-0.262500X0*%
%ADD27C,2.400000*%
%ADD28RoundRect,0.250000X-0.475000X0.250000X-0.475000X-0.250000X0.475000X-0.250000X0.475000X0.250000X0*%
%ADD29RoundRect,0.150000X0.150000X-0.587500X0.150000X0.587500X-0.150000X0.587500X-0.150000X-0.587500X0*%
%ADD30RoundRect,0.150000X0.150000X-0.825000X0.150000X0.825000X-0.150000X0.825000X-0.150000X-0.825000X0*%
%ADD31RoundRect,0.250000X0.262500X0.450000X-0.262500X0.450000X-0.262500X-0.450000X0.262500X-0.450000X0*%
%ADD32RoundRect,0.250000X0.475000X-0.250000X0.475000X0.250000X-0.475000X0.250000X-0.475000X-0.250000X0*%
%ADD33R,1.500000X0.900000*%
%ADD34R,0.900000X1.500000*%
%ADD35R,0.900000X0.900000*%
%ADD36C,0.600000*%
%ADD37RoundRect,0.250000X0.250000X0.475000X-0.250000X0.475000X-0.250000X-0.475000X0.250000X-0.475000X0*%
%ADD38RoundRect,0.250000X-0.250000X-0.475000X0.250000X-0.475000X0.250000X0.475000X-0.250000X0.475000X0*%
%TA.AperFunction,Profile*%
%ADD39C,0.050000*%
%TD*%
G04 APERTURE END LIST*
D10*
X257759672Y-134915973D02*
X258521577Y-134915973D01*
X257785988Y-127565973D02*
X258547893Y-127565973D01*
X258166940Y-127946926D02*
X258166940Y-127185021D01*
X240347712Y-112143773D02*
X239871521Y-112477106D01*
X240347712Y-112715201D02*
X239347712Y-112715201D01*
X239347712Y-112715201D02*
X239347712Y-112334249D01*
X239347712Y-112334249D02*
X239395331Y-112239011D01*
X239395331Y-112239011D02*
X239442950Y-112191392D01*
X239442950Y-112191392D02*
X239538188Y-112143773D01*
X239538188Y-112143773D02*
X239681045Y-112143773D01*
X239681045Y-112143773D02*
X239776283Y-112191392D01*
X239776283Y-112191392D02*
X239823902Y-112239011D01*
X239823902Y-112239011D02*
X239871521Y-112334249D01*
X239871521Y-112334249D02*
X239871521Y-112715201D01*
X239776283Y-111572344D02*
X239728664Y-111667582D01*
X239728664Y-111667582D02*
X239681045Y-111715201D01*
X239681045Y-111715201D02*
X239585807Y-111762820D01*
X239585807Y-111762820D02*
X239538188Y-111762820D01*
X239538188Y-111762820D02*
X239442950Y-111715201D01*
X239442950Y-111715201D02*
X239395331Y-111667582D01*
X239395331Y-111667582D02*
X239347712Y-111572344D01*
X239347712Y-111572344D02*
X239347712Y-111381868D01*
X239347712Y-111381868D02*
X239395331Y-111286630D01*
X239395331Y-111286630D02*
X239442950Y-111239011D01*
X239442950Y-111239011D02*
X239538188Y-111191392D01*
X239538188Y-111191392D02*
X239585807Y-111191392D01*
X239585807Y-111191392D02*
X239681045Y-111239011D01*
X239681045Y-111239011D02*
X239728664Y-111286630D01*
X239728664Y-111286630D02*
X239776283Y-111381868D01*
X239776283Y-111381868D02*
X239776283Y-111572344D01*
X239776283Y-111572344D02*
X239823902Y-111667582D01*
X239823902Y-111667582D02*
X239871521Y-111715201D01*
X239871521Y-111715201D02*
X239966759Y-111762820D01*
X239966759Y-111762820D02*
X240157235Y-111762820D01*
X240157235Y-111762820D02*
X240252473Y-111715201D01*
X240252473Y-111715201D02*
X240300093Y-111667582D01*
X240300093Y-111667582D02*
X240347712Y-111572344D01*
X240347712Y-111572344D02*
X240347712Y-111381868D01*
X240347712Y-111381868D02*
X240300093Y-111286630D01*
X240300093Y-111286630D02*
X240252473Y-111239011D01*
X240252473Y-111239011D02*
X240157235Y-111191392D01*
X240157235Y-111191392D02*
X239966759Y-111191392D01*
X239966759Y-111191392D02*
X239871521Y-111239011D01*
X239871521Y-111239011D02*
X239823902Y-111286630D01*
X239823902Y-111286630D02*
X239776283Y-111381868D01*
X181956226Y-115641926D02*
X181622893Y-115165735D01*
X181384798Y-115641926D02*
X181384798Y-114641926D01*
X181384798Y-114641926D02*
X181765750Y-114641926D01*
X181765750Y-114641926D02*
X181860988Y-114689545D01*
X181860988Y-114689545D02*
X181908607Y-114737164D01*
X181908607Y-114737164D02*
X181956226Y-114832402D01*
X181956226Y-114832402D02*
X181956226Y-114975259D01*
X181956226Y-114975259D02*
X181908607Y-115070497D01*
X181908607Y-115070497D02*
X181860988Y-115118116D01*
X181860988Y-115118116D02*
X181765750Y-115165735D01*
X181765750Y-115165735D02*
X181384798Y-115165735D01*
X182813369Y-114975259D02*
X182813369Y-115641926D01*
X182575274Y-114594307D02*
X182337179Y-115308592D01*
X182337179Y-115308592D02*
X182956226Y-115308592D01*
X225370154Y-132587164D02*
X225274916Y-132539545D01*
X225274916Y-132539545D02*
X225179678Y-132444307D01*
X225179678Y-132444307D02*
X225036821Y-132301449D01*
X225036821Y-132301449D02*
X224941583Y-132253830D01*
X224941583Y-132253830D02*
X224846345Y-132253830D01*
X224893964Y-132491926D02*
X224798726Y-132444307D01*
X224798726Y-132444307D02*
X224703488Y-132349068D01*
X224703488Y-132349068D02*
X224655869Y-132158592D01*
X224655869Y-132158592D02*
X224655869Y-131825259D01*
X224655869Y-131825259D02*
X224703488Y-131634783D01*
X224703488Y-131634783D02*
X224798726Y-131539545D01*
X224798726Y-131539545D02*
X224893964Y-131491926D01*
X224893964Y-131491926D02*
X225084440Y-131491926D01*
X225084440Y-131491926D02*
X225179678Y-131539545D01*
X225179678Y-131539545D02*
X225274916Y-131634783D01*
X225274916Y-131634783D02*
X225322535Y-131825259D01*
X225322535Y-131825259D02*
X225322535Y-132158592D01*
X225322535Y-132158592D02*
X225274916Y-132349068D01*
X225274916Y-132349068D02*
X225179678Y-132444307D01*
X225179678Y-132444307D02*
X225084440Y-132491926D01*
X225084440Y-132491926D02*
X224893964Y-132491926D01*
X226274916Y-132491926D02*
X225703488Y-132491926D01*
X225989202Y-132491926D02*
X225989202Y-131491926D01*
X225989202Y-131491926D02*
X225893964Y-131634783D01*
X225893964Y-131634783D02*
X225798726Y-131730021D01*
X225798726Y-131730021D02*
X225703488Y-131777640D01*
X255650988Y-108241926D02*
X255650988Y-107241926D01*
X255650988Y-107718116D02*
X256222416Y-107718116D01*
X256222416Y-108241926D02*
X256222416Y-107241926D01*
X256603369Y-107241926D02*
X257222416Y-107241926D01*
X257222416Y-107241926D02*
X256889083Y-107622878D01*
X256889083Y-107622878D02*
X257031940Y-107622878D01*
X257031940Y-107622878D02*
X257127178Y-107670497D01*
X257127178Y-107670497D02*
X257174797Y-107718116D01*
X257174797Y-107718116D02*
X257222416Y-107813354D01*
X257222416Y-107813354D02*
X257222416Y-108051449D01*
X257222416Y-108051449D02*
X257174797Y-108146687D01*
X257174797Y-108146687D02*
X257127178Y-108194307D01*
X257127178Y-108194307D02*
X257031940Y-108241926D01*
X257031940Y-108241926D02*
X256746226Y-108241926D01*
X256746226Y-108241926D02*
X256650988Y-108194307D01*
X256650988Y-108194307D02*
X256603369Y-108146687D01*
X201536226Y-126326687D02*
X201488607Y-126374307D01*
X201488607Y-126374307D02*
X201345750Y-126421926D01*
X201345750Y-126421926D02*
X201250512Y-126421926D01*
X201250512Y-126421926D02*
X201107655Y-126374307D01*
X201107655Y-126374307D02*
X201012417Y-126279068D01*
X201012417Y-126279068D02*
X200964798Y-126183830D01*
X200964798Y-126183830D02*
X200917179Y-125993354D01*
X200917179Y-125993354D02*
X200917179Y-125850497D01*
X200917179Y-125850497D02*
X200964798Y-125660021D01*
X200964798Y-125660021D02*
X201012417Y-125564783D01*
X201012417Y-125564783D02*
X201107655Y-125469545D01*
X201107655Y-125469545D02*
X201250512Y-125421926D01*
X201250512Y-125421926D02*
X201345750Y-125421926D01*
X201345750Y-125421926D02*
X201488607Y-125469545D01*
X201488607Y-125469545D02*
X201536226Y-125517164D01*
X201917179Y-125517164D02*
X201964798Y-125469545D01*
X201964798Y-125469545D02*
X202060036Y-125421926D01*
X202060036Y-125421926D02*
X202298131Y-125421926D01*
X202298131Y-125421926D02*
X202393369Y-125469545D01*
X202393369Y-125469545D02*
X202440988Y-125517164D01*
X202440988Y-125517164D02*
X202488607Y-125612402D01*
X202488607Y-125612402D02*
X202488607Y-125707640D01*
X202488607Y-125707640D02*
X202440988Y-125850497D01*
X202440988Y-125850497D02*
X201869560Y-126421926D01*
X201869560Y-126421926D02*
X202488607Y-126421926D01*
X255127712Y-131800440D02*
X255841997Y-131800440D01*
X255841997Y-131800440D02*
X255984854Y-131848059D01*
X255984854Y-131848059D02*
X256080093Y-131943297D01*
X256080093Y-131943297D02*
X256127712Y-132086154D01*
X256127712Y-132086154D02*
X256127712Y-132181392D01*
X255222950Y-131371868D02*
X255175331Y-131324249D01*
X255175331Y-131324249D02*
X255127712Y-131229011D01*
X255127712Y-131229011D02*
X255127712Y-130990916D01*
X255127712Y-130990916D02*
X255175331Y-130895678D01*
X255175331Y-130895678D02*
X255222950Y-130848059D01*
X255222950Y-130848059D02*
X255318188Y-130800440D01*
X255318188Y-130800440D02*
X255413426Y-130800440D01*
X255413426Y-130800440D02*
X255556283Y-130848059D01*
X255556283Y-130848059D02*
X256127712Y-131419487D01*
X256127712Y-131419487D02*
X256127712Y-130800440D01*
X239916226Y-109511926D02*
X239582893Y-109035735D01*
X239344798Y-109511926D02*
X239344798Y-108511926D01*
X239344798Y-108511926D02*
X239725750Y-108511926D01*
X239725750Y-108511926D02*
X239820988Y-108559545D01*
X239820988Y-108559545D02*
X239868607Y-108607164D01*
X239868607Y-108607164D02*
X239916226Y-108702402D01*
X239916226Y-108702402D02*
X239916226Y-108845259D01*
X239916226Y-108845259D02*
X239868607Y-108940497D01*
X239868607Y-108940497D02*
X239820988Y-108988116D01*
X239820988Y-108988116D02*
X239725750Y-109035735D01*
X239725750Y-109035735D02*
X239344798Y-109035735D01*
X240392417Y-109511926D02*
X240582893Y-109511926D01*
X240582893Y-109511926D02*
X240678131Y-109464307D01*
X240678131Y-109464307D02*
X240725750Y-109416687D01*
X240725750Y-109416687D02*
X240820988Y-109273830D01*
X240820988Y-109273830D02*
X240868607Y-109083354D01*
X240868607Y-109083354D02*
X240868607Y-108702402D01*
X240868607Y-108702402D02*
X240820988Y-108607164D01*
X240820988Y-108607164D02*
X240773369Y-108559545D01*
X240773369Y-108559545D02*
X240678131Y-108511926D01*
X240678131Y-108511926D02*
X240487655Y-108511926D01*
X240487655Y-108511926D02*
X240392417Y-108559545D01*
X240392417Y-108559545D02*
X240344798Y-108607164D01*
X240344798Y-108607164D02*
X240297179Y-108702402D01*
X240297179Y-108702402D02*
X240297179Y-108940497D01*
X240297179Y-108940497D02*
X240344798Y-109035735D01*
X240344798Y-109035735D02*
X240392417Y-109083354D01*
X240392417Y-109083354D02*
X240487655Y-109130973D01*
X240487655Y-109130973D02*
X240678131Y-109130973D01*
X240678131Y-109130973D02*
X240773369Y-109083354D01*
X240773369Y-109083354D02*
X240820988Y-109035735D01*
X240820988Y-109035735D02*
X240868607Y-108940497D01*
X248310988Y-113911926D02*
X248310988Y-114721449D01*
X248310988Y-114721449D02*
X248358607Y-114816687D01*
X248358607Y-114816687D02*
X248406226Y-114864307D01*
X248406226Y-114864307D02*
X248501464Y-114911926D01*
X248501464Y-114911926D02*
X248691940Y-114911926D01*
X248691940Y-114911926D02*
X248787178Y-114864307D01*
X248787178Y-114864307D02*
X248834797Y-114816687D01*
X248834797Y-114816687D02*
X248882416Y-114721449D01*
X248882416Y-114721449D02*
X248882416Y-113911926D01*
X249834797Y-113911926D02*
X249358607Y-113911926D01*
X249358607Y-113911926D02*
X249310988Y-114388116D01*
X249310988Y-114388116D02*
X249358607Y-114340497D01*
X249358607Y-114340497D02*
X249453845Y-114292878D01*
X249453845Y-114292878D02*
X249691940Y-114292878D01*
X249691940Y-114292878D02*
X249787178Y-114340497D01*
X249787178Y-114340497D02*
X249834797Y-114388116D01*
X249834797Y-114388116D02*
X249882416Y-114483354D01*
X249882416Y-114483354D02*
X249882416Y-114721449D01*
X249882416Y-114721449D02*
X249834797Y-114816687D01*
X249834797Y-114816687D02*
X249787178Y-114864307D01*
X249787178Y-114864307D02*
X249691940Y-114911926D01*
X249691940Y-114911926D02*
X249453845Y-114911926D01*
X249453845Y-114911926D02*
X249358607Y-114864307D01*
X249358607Y-114864307D02*
X249310988Y-114816687D01*
X187999559Y-130001926D02*
X187999559Y-130716211D01*
X187999559Y-130716211D02*
X187951940Y-130859068D01*
X187951940Y-130859068D02*
X187856702Y-130954307D01*
X187856702Y-130954307D02*
X187713845Y-131001926D01*
X187713845Y-131001926D02*
X187618607Y-131001926D01*
X188999559Y-131001926D02*
X188428131Y-131001926D01*
X188713845Y-131001926D02*
X188713845Y-130001926D01*
X188713845Y-130001926D02*
X188618607Y-130144783D01*
X188618607Y-130144783D02*
X188523369Y-130240021D01*
X188523369Y-130240021D02*
X188428131Y-130287640D01*
X197820988Y-106786926D02*
X197820988Y-107596449D01*
X197820988Y-107596449D02*
X197868607Y-107691687D01*
X197868607Y-107691687D02*
X197916226Y-107739307D01*
X197916226Y-107739307D02*
X198011464Y-107786926D01*
X198011464Y-107786926D02*
X198201940Y-107786926D01*
X198201940Y-107786926D02*
X198297178Y-107739307D01*
X198297178Y-107739307D02*
X198344797Y-107691687D01*
X198344797Y-107691687D02*
X198392416Y-107596449D01*
X198392416Y-107596449D02*
X198392416Y-106786926D01*
X198820988Y-106882164D02*
X198868607Y-106834545D01*
X198868607Y-106834545D02*
X198963845Y-106786926D01*
X198963845Y-106786926D02*
X199201940Y-106786926D01*
X199201940Y-106786926D02*
X199297178Y-106834545D01*
X199297178Y-106834545D02*
X199344797Y-106882164D01*
X199344797Y-106882164D02*
X199392416Y-106977402D01*
X199392416Y-106977402D02*
X199392416Y-107072640D01*
X199392416Y-107072640D02*
X199344797Y-107215497D01*
X199344797Y-107215497D02*
X198773369Y-107786926D01*
X198773369Y-107786926D02*
X199392416Y-107786926D01*
X181956226Y-134221926D02*
X181622893Y-133745735D01*
X181384798Y-134221926D02*
X181384798Y-133221926D01*
X181384798Y-133221926D02*
X181765750Y-133221926D01*
X181765750Y-133221926D02*
X181860988Y-133269545D01*
X181860988Y-133269545D02*
X181908607Y-133317164D01*
X181908607Y-133317164D02*
X181956226Y-133412402D01*
X181956226Y-133412402D02*
X181956226Y-133555259D01*
X181956226Y-133555259D02*
X181908607Y-133650497D01*
X181908607Y-133650497D02*
X181860988Y-133698116D01*
X181860988Y-133698116D02*
X181765750Y-133745735D01*
X181765750Y-133745735D02*
X181384798Y-133745735D01*
X182860988Y-133221926D02*
X182384798Y-133221926D01*
X182384798Y-133221926D02*
X182337179Y-133698116D01*
X182337179Y-133698116D02*
X182384798Y-133650497D01*
X182384798Y-133650497D02*
X182480036Y-133602878D01*
X182480036Y-133602878D02*
X182718131Y-133602878D01*
X182718131Y-133602878D02*
X182813369Y-133650497D01*
X182813369Y-133650497D02*
X182860988Y-133698116D01*
X182860988Y-133698116D02*
X182908607Y-133793354D01*
X182908607Y-133793354D02*
X182908607Y-134031449D01*
X182908607Y-134031449D02*
X182860988Y-134126687D01*
X182860988Y-134126687D02*
X182813369Y-134174307D01*
X182813369Y-134174307D02*
X182718131Y-134221926D01*
X182718131Y-134221926D02*
X182480036Y-134221926D01*
X182480036Y-134221926D02*
X182384798Y-134174307D01*
X182384798Y-134174307D02*
X182337179Y-134126687D01*
X221816226Y-132511926D02*
X221482893Y-132035735D01*
X221244798Y-132511926D02*
X221244798Y-131511926D01*
X221244798Y-131511926D02*
X221625750Y-131511926D01*
X221625750Y-131511926D02*
X221720988Y-131559545D01*
X221720988Y-131559545D02*
X221768607Y-131607164D01*
X221768607Y-131607164D02*
X221816226Y-131702402D01*
X221816226Y-131702402D02*
X221816226Y-131845259D01*
X221816226Y-131845259D02*
X221768607Y-131940497D01*
X221768607Y-131940497D02*
X221720988Y-131988116D01*
X221720988Y-131988116D02*
X221625750Y-132035735D01*
X221625750Y-132035735D02*
X221244798Y-132035735D01*
X222673369Y-131511926D02*
X222482893Y-131511926D01*
X222482893Y-131511926D02*
X222387655Y-131559545D01*
X222387655Y-131559545D02*
X222340036Y-131607164D01*
X222340036Y-131607164D02*
X222244798Y-131750021D01*
X222244798Y-131750021D02*
X222197179Y-131940497D01*
X222197179Y-131940497D02*
X222197179Y-132321449D01*
X222197179Y-132321449D02*
X222244798Y-132416687D01*
X222244798Y-132416687D02*
X222292417Y-132464307D01*
X222292417Y-132464307D02*
X222387655Y-132511926D01*
X222387655Y-132511926D02*
X222578131Y-132511926D01*
X222578131Y-132511926D02*
X222673369Y-132464307D01*
X222673369Y-132464307D02*
X222720988Y-132416687D01*
X222720988Y-132416687D02*
X222768607Y-132321449D01*
X222768607Y-132321449D02*
X222768607Y-132083354D01*
X222768607Y-132083354D02*
X222720988Y-131988116D01*
X222720988Y-131988116D02*
X222673369Y-131940497D01*
X222673369Y-131940497D02*
X222578131Y-131892878D01*
X222578131Y-131892878D02*
X222387655Y-131892878D01*
X222387655Y-131892878D02*
X222292417Y-131940497D01*
X222292417Y-131940497D02*
X222244798Y-131988116D01*
X222244798Y-131988116D02*
X222197179Y-132083354D01*
X224930035Y-129271926D02*
X224596702Y-128795735D01*
X224358607Y-129271926D02*
X224358607Y-128271926D01*
X224358607Y-128271926D02*
X224739559Y-128271926D01*
X224739559Y-128271926D02*
X224834797Y-128319545D01*
X224834797Y-128319545D02*
X224882416Y-128367164D01*
X224882416Y-128367164D02*
X224930035Y-128462402D01*
X224930035Y-128462402D02*
X224930035Y-128605259D01*
X224930035Y-128605259D02*
X224882416Y-128700497D01*
X224882416Y-128700497D02*
X224834797Y-128748116D01*
X224834797Y-128748116D02*
X224739559Y-128795735D01*
X224739559Y-128795735D02*
X224358607Y-128795735D01*
X225882416Y-129271926D02*
X225310988Y-129271926D01*
X225596702Y-129271926D02*
X225596702Y-128271926D01*
X225596702Y-128271926D02*
X225501464Y-128414783D01*
X225501464Y-128414783D02*
X225406226Y-128510021D01*
X225406226Y-128510021D02*
X225310988Y-128557640D01*
X226263369Y-128367164D02*
X226310988Y-128319545D01*
X226310988Y-128319545D02*
X226406226Y-128271926D01*
X226406226Y-128271926D02*
X226644321Y-128271926D01*
X226644321Y-128271926D02*
X226739559Y-128319545D01*
X226739559Y-128319545D02*
X226787178Y-128367164D01*
X226787178Y-128367164D02*
X226834797Y-128462402D01*
X226834797Y-128462402D02*
X226834797Y-128557640D01*
X226834797Y-128557640D02*
X226787178Y-128700497D01*
X226787178Y-128700497D02*
X226215750Y-129271926D01*
X226215750Y-129271926D02*
X226834797Y-129271926D01*
X255597712Y-127863773D02*
X255121521Y-128197106D01*
X255597712Y-128435201D02*
X254597712Y-128435201D01*
X254597712Y-128435201D02*
X254597712Y-128054249D01*
X254597712Y-128054249D02*
X254645331Y-127959011D01*
X254645331Y-127959011D02*
X254692950Y-127911392D01*
X254692950Y-127911392D02*
X254788188Y-127863773D01*
X254788188Y-127863773D02*
X254931045Y-127863773D01*
X254931045Y-127863773D02*
X255026283Y-127911392D01*
X255026283Y-127911392D02*
X255073902Y-127959011D01*
X255073902Y-127959011D02*
X255121521Y-128054249D01*
X255121521Y-128054249D02*
X255121521Y-128435201D01*
X255597712Y-126911392D02*
X255597712Y-127482820D01*
X255597712Y-127197106D02*
X254597712Y-127197106D01*
X254597712Y-127197106D02*
X254740569Y-127292344D01*
X254740569Y-127292344D02*
X254835807Y-127387582D01*
X254835807Y-127387582D02*
X254883426Y-127482820D01*
X205290035Y-110741926D02*
X204956702Y-110265735D01*
X204718607Y-110741926D02*
X204718607Y-109741926D01*
X204718607Y-109741926D02*
X205099559Y-109741926D01*
X205099559Y-109741926D02*
X205194797Y-109789545D01*
X205194797Y-109789545D02*
X205242416Y-109837164D01*
X205242416Y-109837164D02*
X205290035Y-109932402D01*
X205290035Y-109932402D02*
X205290035Y-110075259D01*
X205290035Y-110075259D02*
X205242416Y-110170497D01*
X205242416Y-110170497D02*
X205194797Y-110218116D01*
X205194797Y-110218116D02*
X205099559Y-110265735D01*
X205099559Y-110265735D02*
X204718607Y-110265735D01*
X206242416Y-110741926D02*
X205670988Y-110741926D01*
X205956702Y-110741926D02*
X205956702Y-109741926D01*
X205956702Y-109741926D02*
X205861464Y-109884783D01*
X205861464Y-109884783D02*
X205766226Y-109980021D01*
X205766226Y-109980021D02*
X205670988Y-110027640D01*
X206861464Y-109741926D02*
X206956702Y-109741926D01*
X206956702Y-109741926D02*
X207051940Y-109789545D01*
X207051940Y-109789545D02*
X207099559Y-109837164D01*
X207099559Y-109837164D02*
X207147178Y-109932402D01*
X207147178Y-109932402D02*
X207194797Y-110122878D01*
X207194797Y-110122878D02*
X207194797Y-110360973D01*
X207194797Y-110360973D02*
X207147178Y-110551449D01*
X207147178Y-110551449D02*
X207099559Y-110646687D01*
X207099559Y-110646687D02*
X207051940Y-110694307D01*
X207051940Y-110694307D02*
X206956702Y-110741926D01*
X206956702Y-110741926D02*
X206861464Y-110741926D01*
X206861464Y-110741926D02*
X206766226Y-110694307D01*
X206766226Y-110694307D02*
X206718607Y-110646687D01*
X206718607Y-110646687D02*
X206670988Y-110551449D01*
X206670988Y-110551449D02*
X206623369Y-110360973D01*
X206623369Y-110360973D02*
X206623369Y-110122878D01*
X206623369Y-110122878D02*
X206670988Y-109932402D01*
X206670988Y-109932402D02*
X206718607Y-109837164D01*
X206718607Y-109837164D02*
X206766226Y-109789545D01*
X206766226Y-109789545D02*
X206861464Y-109741926D01*
X214962473Y-111963773D02*
X215010093Y-112011392D01*
X215010093Y-112011392D02*
X215057712Y-112154249D01*
X215057712Y-112154249D02*
X215057712Y-112249487D01*
X215057712Y-112249487D02*
X215010093Y-112392344D01*
X215010093Y-112392344D02*
X214914854Y-112487582D01*
X214914854Y-112487582D02*
X214819616Y-112535201D01*
X214819616Y-112535201D02*
X214629140Y-112582820D01*
X214629140Y-112582820D02*
X214486283Y-112582820D01*
X214486283Y-112582820D02*
X214295807Y-112535201D01*
X214295807Y-112535201D02*
X214200569Y-112487582D01*
X214200569Y-112487582D02*
X214105331Y-112392344D01*
X214105331Y-112392344D02*
X214057712Y-112249487D01*
X214057712Y-112249487D02*
X214057712Y-112154249D01*
X214057712Y-112154249D02*
X214105331Y-112011392D01*
X214105331Y-112011392D02*
X214152950Y-111963773D01*
X214057712Y-111630439D02*
X214057712Y-110963773D01*
X214057712Y-110963773D02*
X215057712Y-111392344D01*
X195276226Y-126326687D02*
X195228607Y-126374307D01*
X195228607Y-126374307D02*
X195085750Y-126421926D01*
X195085750Y-126421926D02*
X194990512Y-126421926D01*
X194990512Y-126421926D02*
X194847655Y-126374307D01*
X194847655Y-126374307D02*
X194752417Y-126279068D01*
X194752417Y-126279068D02*
X194704798Y-126183830D01*
X194704798Y-126183830D02*
X194657179Y-125993354D01*
X194657179Y-125993354D02*
X194657179Y-125850497D01*
X194657179Y-125850497D02*
X194704798Y-125660021D01*
X194704798Y-125660021D02*
X194752417Y-125564783D01*
X194752417Y-125564783D02*
X194847655Y-125469545D01*
X194847655Y-125469545D02*
X194990512Y-125421926D01*
X194990512Y-125421926D02*
X195085750Y-125421926D01*
X195085750Y-125421926D02*
X195228607Y-125469545D01*
X195228607Y-125469545D02*
X195276226Y-125517164D01*
X196228607Y-126421926D02*
X195657179Y-126421926D01*
X195942893Y-126421926D02*
X195942893Y-125421926D01*
X195942893Y-125421926D02*
X195847655Y-125564783D01*
X195847655Y-125564783D02*
X195752417Y-125660021D01*
X195752417Y-125660021D02*
X195657179Y-125707640D01*
X212947654Y-120197164D02*
X212852416Y-120149545D01*
X212852416Y-120149545D02*
X212757178Y-120054307D01*
X212757178Y-120054307D02*
X212614321Y-119911449D01*
X212614321Y-119911449D02*
X212519083Y-119863830D01*
X212519083Y-119863830D02*
X212423845Y-119863830D01*
X212471464Y-120101926D02*
X212376226Y-120054307D01*
X212376226Y-120054307D02*
X212280988Y-119959068D01*
X212280988Y-119959068D02*
X212233369Y-119768592D01*
X212233369Y-119768592D02*
X212233369Y-119435259D01*
X212233369Y-119435259D02*
X212280988Y-119244783D01*
X212280988Y-119244783D02*
X212376226Y-119149545D01*
X212376226Y-119149545D02*
X212471464Y-119101926D01*
X212471464Y-119101926D02*
X212661940Y-119101926D01*
X212661940Y-119101926D02*
X212757178Y-119149545D01*
X212757178Y-119149545D02*
X212852416Y-119244783D01*
X212852416Y-119244783D02*
X212900035Y-119435259D01*
X212900035Y-119435259D02*
X212900035Y-119768592D01*
X212900035Y-119768592D02*
X212852416Y-119959068D01*
X212852416Y-119959068D02*
X212757178Y-120054307D01*
X212757178Y-120054307D02*
X212661940Y-120101926D01*
X212661940Y-120101926D02*
X212471464Y-120101926D01*
X213280988Y-119197164D02*
X213328607Y-119149545D01*
X213328607Y-119149545D02*
X213423845Y-119101926D01*
X213423845Y-119101926D02*
X213661940Y-119101926D01*
X213661940Y-119101926D02*
X213757178Y-119149545D01*
X213757178Y-119149545D02*
X213804797Y-119197164D01*
X213804797Y-119197164D02*
X213852416Y-119292402D01*
X213852416Y-119292402D02*
X213852416Y-119387640D01*
X213852416Y-119387640D02*
X213804797Y-119530497D01*
X213804797Y-119530497D02*
X213233369Y-120101926D01*
X213233369Y-120101926D02*
X213852416Y-120101926D01*
X182640988Y-108241926D02*
X182640988Y-107241926D01*
X182640988Y-107718116D02*
X183212416Y-107718116D01*
X183212416Y-108241926D02*
X183212416Y-107241926D01*
X184117178Y-107575259D02*
X184117178Y-108241926D01*
X183879083Y-107194307D02*
X183640988Y-107908592D01*
X183640988Y-107908592D02*
X184260035Y-107908592D01*
X213950988Y-140111926D02*
X213950988Y-140921449D01*
X213950988Y-140921449D02*
X213998607Y-141016687D01*
X213998607Y-141016687D02*
X214046226Y-141064307D01*
X214046226Y-141064307D02*
X214141464Y-141111926D01*
X214141464Y-141111926D02*
X214331940Y-141111926D01*
X214331940Y-141111926D02*
X214427178Y-141064307D01*
X214427178Y-141064307D02*
X214474797Y-141016687D01*
X214474797Y-141016687D02*
X214522416Y-140921449D01*
X214522416Y-140921449D02*
X214522416Y-140111926D01*
X214903369Y-140111926D02*
X215522416Y-140111926D01*
X215522416Y-140111926D02*
X215189083Y-140492878D01*
X215189083Y-140492878D02*
X215331940Y-140492878D01*
X215331940Y-140492878D02*
X215427178Y-140540497D01*
X215427178Y-140540497D02*
X215474797Y-140588116D01*
X215474797Y-140588116D02*
X215522416Y-140683354D01*
X215522416Y-140683354D02*
X215522416Y-140921449D01*
X215522416Y-140921449D02*
X215474797Y-141016687D01*
X215474797Y-141016687D02*
X215427178Y-141064307D01*
X215427178Y-141064307D02*
X215331940Y-141111926D01*
X215331940Y-141111926D02*
X215046226Y-141111926D01*
X215046226Y-141111926D02*
X214950988Y-141064307D01*
X214950988Y-141064307D02*
X214903369Y-141016687D01*
X255600988Y-143411926D02*
X255600988Y-142411926D01*
X255600988Y-142888116D02*
X256172416Y-142888116D01*
X256172416Y-143411926D02*
X256172416Y-142411926D01*
X256600988Y-142507164D02*
X256648607Y-142459545D01*
X256648607Y-142459545D02*
X256743845Y-142411926D01*
X256743845Y-142411926D02*
X256981940Y-142411926D01*
X256981940Y-142411926D02*
X257077178Y-142459545D01*
X257077178Y-142459545D02*
X257124797Y-142507164D01*
X257124797Y-142507164D02*
X257172416Y-142602402D01*
X257172416Y-142602402D02*
X257172416Y-142697640D01*
X257172416Y-142697640D02*
X257124797Y-142840497D01*
X257124797Y-142840497D02*
X256553369Y-143411926D01*
X256553369Y-143411926D02*
X257172416Y-143411926D01*
X208267712Y-123363773D02*
X207791521Y-123697106D01*
X208267712Y-123935201D02*
X207267712Y-123935201D01*
X207267712Y-123935201D02*
X207267712Y-123554249D01*
X207267712Y-123554249D02*
X207315331Y-123459011D01*
X207315331Y-123459011D02*
X207362950Y-123411392D01*
X207362950Y-123411392D02*
X207458188Y-123363773D01*
X207458188Y-123363773D02*
X207601045Y-123363773D01*
X207601045Y-123363773D02*
X207696283Y-123411392D01*
X207696283Y-123411392D02*
X207743902Y-123459011D01*
X207743902Y-123459011D02*
X207791521Y-123554249D01*
X207791521Y-123554249D02*
X207791521Y-123935201D01*
X207267712Y-123030439D02*
X207267712Y-122363773D01*
X207267712Y-122363773D02*
X208267712Y-122792344D01*
X209266226Y-110716687D02*
X209218607Y-110764307D01*
X209218607Y-110764307D02*
X209075750Y-110811926D01*
X209075750Y-110811926D02*
X208980512Y-110811926D01*
X208980512Y-110811926D02*
X208837655Y-110764307D01*
X208837655Y-110764307D02*
X208742417Y-110669068D01*
X208742417Y-110669068D02*
X208694798Y-110573830D01*
X208694798Y-110573830D02*
X208647179Y-110383354D01*
X208647179Y-110383354D02*
X208647179Y-110240497D01*
X208647179Y-110240497D02*
X208694798Y-110050021D01*
X208694798Y-110050021D02*
X208742417Y-109954783D01*
X208742417Y-109954783D02*
X208837655Y-109859545D01*
X208837655Y-109859545D02*
X208980512Y-109811926D01*
X208980512Y-109811926D02*
X209075750Y-109811926D01*
X209075750Y-109811926D02*
X209218607Y-109859545D01*
X209218607Y-109859545D02*
X209266226Y-109907164D01*
X210170988Y-109811926D02*
X209694798Y-109811926D01*
X209694798Y-109811926D02*
X209647179Y-110288116D01*
X209647179Y-110288116D02*
X209694798Y-110240497D01*
X209694798Y-110240497D02*
X209790036Y-110192878D01*
X209790036Y-110192878D02*
X210028131Y-110192878D01*
X210028131Y-110192878D02*
X210123369Y-110240497D01*
X210123369Y-110240497D02*
X210170988Y-110288116D01*
X210170988Y-110288116D02*
X210218607Y-110383354D01*
X210218607Y-110383354D02*
X210218607Y-110621449D01*
X210218607Y-110621449D02*
X210170988Y-110716687D01*
X210170988Y-110716687D02*
X210123369Y-110764307D01*
X210123369Y-110764307D02*
X210028131Y-110811926D01*
X210028131Y-110811926D02*
X209790036Y-110811926D01*
X209790036Y-110811926D02*
X209694798Y-110764307D01*
X209694798Y-110764307D02*
X209647179Y-110716687D01*
X215499672Y-124621926D02*
X215499672Y-125431449D01*
X215499672Y-125431449D02*
X215547291Y-125526687D01*
X215547291Y-125526687D02*
X215594910Y-125574307D01*
X215594910Y-125574307D02*
X215690148Y-125621926D01*
X215690148Y-125621926D02*
X215880624Y-125621926D01*
X215880624Y-125621926D02*
X215975862Y-125574307D01*
X215975862Y-125574307D02*
X216023481Y-125526687D01*
X216023481Y-125526687D02*
X216071100Y-125431449D01*
X216071100Y-125431449D02*
X216071100Y-124621926D01*
X217071100Y-125621926D02*
X216499672Y-125621926D01*
X216785386Y-125621926D02*
X216785386Y-124621926D01*
X216785386Y-124621926D02*
X216690148Y-124764783D01*
X216690148Y-124764783D02*
X216594910Y-124860021D01*
X216594910Y-124860021D02*
X216499672Y-124907640D01*
X249607712Y-127863773D02*
X249131521Y-128197106D01*
X249607712Y-128435201D02*
X248607712Y-128435201D01*
X248607712Y-128435201D02*
X248607712Y-128054249D01*
X248607712Y-128054249D02*
X248655331Y-127959011D01*
X248655331Y-127959011D02*
X248702950Y-127911392D01*
X248702950Y-127911392D02*
X248798188Y-127863773D01*
X248798188Y-127863773D02*
X248941045Y-127863773D01*
X248941045Y-127863773D02*
X249036283Y-127911392D01*
X249036283Y-127911392D02*
X249083902Y-127959011D01*
X249083902Y-127959011D02*
X249131521Y-128054249D01*
X249131521Y-128054249D02*
X249131521Y-128435201D01*
X248702950Y-127482820D02*
X248655331Y-127435201D01*
X248655331Y-127435201D02*
X248607712Y-127339963D01*
X248607712Y-127339963D02*
X248607712Y-127101868D01*
X248607712Y-127101868D02*
X248655331Y-127006630D01*
X248655331Y-127006630D02*
X248702950Y-126959011D01*
X248702950Y-126959011D02*
X248798188Y-126911392D01*
X248798188Y-126911392D02*
X248893426Y-126911392D01*
X248893426Y-126911392D02*
X249036283Y-126959011D01*
X249036283Y-126959011D02*
X249607712Y-127530439D01*
X249607712Y-127530439D02*
X249607712Y-126911392D01*
X211602473Y-108093773D02*
X211650093Y-108141392D01*
X211650093Y-108141392D02*
X211697712Y-108284249D01*
X211697712Y-108284249D02*
X211697712Y-108379487D01*
X211697712Y-108379487D02*
X211650093Y-108522344D01*
X211650093Y-108522344D02*
X211554854Y-108617582D01*
X211554854Y-108617582D02*
X211459616Y-108665201D01*
X211459616Y-108665201D02*
X211269140Y-108712820D01*
X211269140Y-108712820D02*
X211126283Y-108712820D01*
X211126283Y-108712820D02*
X210935807Y-108665201D01*
X210935807Y-108665201D02*
X210840569Y-108617582D01*
X210840569Y-108617582D02*
X210745331Y-108522344D01*
X210745331Y-108522344D02*
X210697712Y-108379487D01*
X210697712Y-108379487D02*
X210697712Y-108284249D01*
X210697712Y-108284249D02*
X210745331Y-108141392D01*
X210745331Y-108141392D02*
X210792950Y-108093773D01*
X210697712Y-107236630D02*
X210697712Y-107427106D01*
X210697712Y-107427106D02*
X210745331Y-107522344D01*
X210745331Y-107522344D02*
X210792950Y-107569963D01*
X210792950Y-107569963D02*
X210935807Y-107665201D01*
X210935807Y-107665201D02*
X211126283Y-107712820D01*
X211126283Y-107712820D02*
X211507235Y-107712820D01*
X211507235Y-107712820D02*
X211602473Y-107665201D01*
X211602473Y-107665201D02*
X211650093Y-107617582D01*
X211650093Y-107617582D02*
X211697712Y-107522344D01*
X211697712Y-107522344D02*
X211697712Y-107331868D01*
X211697712Y-107331868D02*
X211650093Y-107236630D01*
X211650093Y-107236630D02*
X211602473Y-107189011D01*
X211602473Y-107189011D02*
X211507235Y-107141392D01*
X211507235Y-107141392D02*
X211269140Y-107141392D01*
X211269140Y-107141392D02*
X211173902Y-107189011D01*
X211173902Y-107189011D02*
X211126283Y-107236630D01*
X211126283Y-107236630D02*
X211078664Y-107331868D01*
X211078664Y-107331868D02*
X211078664Y-107522344D01*
X211078664Y-107522344D02*
X211126283Y-107617582D01*
X211126283Y-107617582D02*
X211173902Y-107665201D01*
X211173902Y-107665201D02*
X211269140Y-107712820D01*
X182630988Y-143441926D02*
X182630988Y-142441926D01*
X182630988Y-142918116D02*
X183202416Y-142918116D01*
X183202416Y-143441926D02*
X183202416Y-142441926D01*
X184202416Y-143441926D02*
X183630988Y-143441926D01*
X183916702Y-143441926D02*
X183916702Y-142441926D01*
X183916702Y-142441926D02*
X183821464Y-142584783D01*
X183821464Y-142584783D02*
X183726226Y-142680021D01*
X183726226Y-142680021D02*
X183630988Y-142727640D01*
X249686226Y-109796687D02*
X249638607Y-109844307D01*
X249638607Y-109844307D02*
X249495750Y-109891926D01*
X249495750Y-109891926D02*
X249400512Y-109891926D01*
X249400512Y-109891926D02*
X249257655Y-109844307D01*
X249257655Y-109844307D02*
X249162417Y-109749068D01*
X249162417Y-109749068D02*
X249114798Y-109653830D01*
X249114798Y-109653830D02*
X249067179Y-109463354D01*
X249067179Y-109463354D02*
X249067179Y-109320497D01*
X249067179Y-109320497D02*
X249114798Y-109130021D01*
X249114798Y-109130021D02*
X249162417Y-109034783D01*
X249162417Y-109034783D02*
X249257655Y-108939545D01*
X249257655Y-108939545D02*
X249400512Y-108891926D01*
X249400512Y-108891926D02*
X249495750Y-108891926D01*
X249495750Y-108891926D02*
X249638607Y-108939545D01*
X249638607Y-108939545D02*
X249686226Y-108987164D01*
X250543369Y-109225259D02*
X250543369Y-109891926D01*
X250305274Y-108844307D02*
X250067179Y-109558592D01*
X250067179Y-109558592D02*
X250686226Y-109558592D01*
X205022473Y-143133773D02*
X205070093Y-143181392D01*
X205070093Y-143181392D02*
X205117712Y-143324249D01*
X205117712Y-143324249D02*
X205117712Y-143419487D01*
X205117712Y-143419487D02*
X205070093Y-143562344D01*
X205070093Y-143562344D02*
X204974854Y-143657582D01*
X204974854Y-143657582D02*
X204879616Y-143705201D01*
X204879616Y-143705201D02*
X204689140Y-143752820D01*
X204689140Y-143752820D02*
X204546283Y-143752820D01*
X204546283Y-143752820D02*
X204355807Y-143705201D01*
X204355807Y-143705201D02*
X204260569Y-143657582D01*
X204260569Y-143657582D02*
X204165331Y-143562344D01*
X204165331Y-143562344D02*
X204117712Y-143419487D01*
X204117712Y-143419487D02*
X204117712Y-143324249D01*
X204117712Y-143324249D02*
X204165331Y-143181392D01*
X204165331Y-143181392D02*
X204212950Y-143133773D01*
X204117712Y-142800439D02*
X204117712Y-142181392D01*
X204117712Y-142181392D02*
X204498664Y-142514725D01*
X204498664Y-142514725D02*
X204498664Y-142371868D01*
X204498664Y-142371868D02*
X204546283Y-142276630D01*
X204546283Y-142276630D02*
X204593902Y-142229011D01*
X204593902Y-142229011D02*
X204689140Y-142181392D01*
X204689140Y-142181392D02*
X204927235Y-142181392D01*
X204927235Y-142181392D02*
X205022473Y-142229011D01*
X205022473Y-142229011D02*
X205070093Y-142276630D01*
X205070093Y-142276630D02*
X205117712Y-142371868D01*
X205117712Y-142371868D02*
X205117712Y-142657582D01*
X205117712Y-142657582D02*
X205070093Y-142752820D01*
X205070093Y-142752820D02*
X205022473Y-142800439D01*
X229810035Y-129201926D02*
X229476702Y-128725735D01*
X229238607Y-129201926D02*
X229238607Y-128201926D01*
X229238607Y-128201926D02*
X229619559Y-128201926D01*
X229619559Y-128201926D02*
X229714797Y-128249545D01*
X229714797Y-128249545D02*
X229762416Y-128297164D01*
X229762416Y-128297164D02*
X229810035Y-128392402D01*
X229810035Y-128392402D02*
X229810035Y-128535259D01*
X229810035Y-128535259D02*
X229762416Y-128630497D01*
X229762416Y-128630497D02*
X229714797Y-128678116D01*
X229714797Y-128678116D02*
X229619559Y-128725735D01*
X229619559Y-128725735D02*
X229238607Y-128725735D01*
X230762416Y-129201926D02*
X230190988Y-129201926D01*
X230476702Y-129201926D02*
X230476702Y-128201926D01*
X230476702Y-128201926D02*
X230381464Y-128344783D01*
X230381464Y-128344783D02*
X230286226Y-128440021D01*
X230286226Y-128440021D02*
X230190988Y-128487640D01*
X231714797Y-129201926D02*
X231143369Y-129201926D01*
X231429083Y-129201926D02*
X231429083Y-128201926D01*
X231429083Y-128201926D02*
X231333845Y-128344783D01*
X231333845Y-128344783D02*
X231238607Y-128440021D01*
X231238607Y-128440021D02*
X231143369Y-128487640D01*
X243607712Y-127863773D02*
X243131521Y-128197106D01*
X243607712Y-128435201D02*
X242607712Y-128435201D01*
X242607712Y-128435201D02*
X242607712Y-128054249D01*
X242607712Y-128054249D02*
X242655331Y-127959011D01*
X242655331Y-127959011D02*
X242702950Y-127911392D01*
X242702950Y-127911392D02*
X242798188Y-127863773D01*
X242798188Y-127863773D02*
X242941045Y-127863773D01*
X242941045Y-127863773D02*
X243036283Y-127911392D01*
X243036283Y-127911392D02*
X243083902Y-127959011D01*
X243083902Y-127959011D02*
X243131521Y-128054249D01*
X243131521Y-128054249D02*
X243131521Y-128435201D01*
X242607712Y-127530439D02*
X242607712Y-126911392D01*
X242607712Y-126911392D02*
X242988664Y-127244725D01*
X242988664Y-127244725D02*
X242988664Y-127101868D01*
X242988664Y-127101868D02*
X243036283Y-127006630D01*
X243036283Y-127006630D02*
X243083902Y-126959011D01*
X243083902Y-126959011D02*
X243179140Y-126911392D01*
X243179140Y-126911392D02*
X243417235Y-126911392D01*
X243417235Y-126911392D02*
X243512473Y-126959011D01*
X243512473Y-126959011D02*
X243560093Y-127006630D01*
X243560093Y-127006630D02*
X243607712Y-127101868D01*
X243607712Y-127101868D02*
X243607712Y-127387582D01*
X243607712Y-127387582D02*
X243560093Y-127482820D01*
X243560093Y-127482820D02*
X243512473Y-127530439D01*
%TO.C,R8*%
D11*
X237135829Y-111232107D02*
X237589957Y-111232107D01*
X237135829Y-112702107D02*
X237589957Y-112702107D01*
%TO.C,R4*%
X181895829Y-116102107D02*
X182349957Y-116102107D01*
X181895829Y-117572107D02*
X182349957Y-117572107D01*
%TO.C,Q1*%
X224705393Y-132877107D02*
X226225393Y-132877107D01*
X224705393Y-132927107D02*
X224705393Y-132877107D01*
X224705393Y-134827107D02*
X224705393Y-134047107D01*
X224705393Y-135997107D02*
X224705393Y-135947107D01*
X226225393Y-132877107D02*
X226225393Y-133877107D01*
X226225393Y-134997107D02*
X226225393Y-135997107D01*
X226225393Y-135997107D02*
X224705393Y-135997107D01*
X224405393Y-134387107D02*
X223925393Y-134387107D01*
X224165393Y-134057107D01*
X224405393Y-134387107D01*
G36*
X224405393Y-134387107D02*
G01*
X223925393Y-134387107D01*
X224165393Y-134057107D01*
X224405393Y-134387107D01*
G37*
%TO.C,C2*%
X199442893Y-116009607D02*
X199442893Y-124249607D01*
X203962893Y-116009607D02*
X199442893Y-116009607D01*
X203962893Y-124249607D02*
X203962893Y-116009607D01*
%TO.C,J2*%
X256732893Y-128817107D02*
X258112893Y-128817107D01*
X256732893Y-130197107D02*
X256732893Y-128817107D01*
X256732893Y-131467107D02*
X256732893Y-134117107D01*
X256732893Y-131467107D02*
X259492893Y-131467107D01*
X256732893Y-134117107D02*
X259492893Y-134117107D01*
X259492893Y-131467107D02*
X259492893Y-134117107D01*
%TO.C,R9*%
X237135829Y-107422107D02*
X237589957Y-107422107D01*
X237135829Y-108892107D02*
X237589957Y-108892107D01*
%TO.C,U5*%
X244592893Y-112847107D02*
X244792893Y-112847107D01*
X244592893Y-116067107D02*
X244592893Y-112847107D01*
X244792893Y-116067107D02*
X244592893Y-116067107D01*
X247612893Y-112847107D02*
X247812893Y-112847107D01*
X247812893Y-112847107D02*
X247812893Y-116067107D01*
X247812893Y-116067107D02*
X247612893Y-116067107D01*
X244792893Y-116617107D02*
X244462893Y-116857107D01*
X244462893Y-116377107D01*
X244792893Y-116617107D01*
G36*
X244792893Y-116617107D02*
G01*
X244462893Y-116857107D01*
X244462893Y-116377107D01*
X244792893Y-116617107D01*
G37*
%TO.C,J1*%
X184172893Y-119737107D02*
X185872893Y-119737107D01*
X184172893Y-129077107D02*
X185872893Y-129077107D01*
%TO.C,U2*%
X196732893Y-108422107D02*
X200492893Y-108422107D01*
X196732893Y-115242107D02*
X200492893Y-115242107D01*
X200492893Y-108422107D02*
X200492893Y-109682107D01*
X200492893Y-115242107D02*
X200492893Y-113982107D01*
X195452893Y-108522107D02*
X195212893Y-108192107D01*
X195692893Y-108192107D01*
X195452893Y-108522107D01*
G36*
X195452893Y-108522107D02*
G01*
X195212893Y-108192107D01*
X195692893Y-108192107D01*
X195452893Y-108522107D01*
G37*
%TO.C,R5*%
X181895829Y-131302107D02*
X182349957Y-131302107D01*
X181895829Y-132772107D02*
X182349957Y-132772107D01*
%TO.C,R6*%
X221240393Y-134644171D02*
X221240393Y-134190043D01*
X222710393Y-134644171D02*
X222710393Y-134190043D01*
%TO.C,R12*%
X225405829Y-126362107D02*
X225859957Y-126362107D01*
X225405829Y-127832107D02*
X225859957Y-127832107D01*
%TO.C,R1*%
X252232893Y-124257107D02*
X252232893Y-125367107D01*
X252232893Y-136617107D02*
X252232893Y-135507107D01*
X250312893Y-125367107D02*
X254152893Y-125367107D01*
X254152893Y-135507107D01*
X250312893Y-135507107D01*
X250312893Y-125367107D01*
%TO.C,R10*%
X205157893Y-108124171D02*
X205157893Y-107670043D01*
X206627893Y-108124171D02*
X206627893Y-107670043D01*
%TO.C,C7*%
X212187893Y-111535855D02*
X212187893Y-112058359D01*
X213657893Y-111535855D02*
X213657893Y-112058359D01*
%TO.C,C1*%
X193202893Y-115989607D02*
X193202893Y-124229607D01*
X197722893Y-115989607D02*
X193202893Y-115989607D01*
X197722893Y-124229607D02*
X197722893Y-115989607D01*
%TO.C,Q2*%
X208697893Y-118817107D02*
X209697893Y-118817107D01*
X208697893Y-120337107D02*
X208697893Y-118817107D01*
X208747893Y-120337107D02*
X208697893Y-120337107D01*
X210647893Y-120337107D02*
X209867893Y-120337107D01*
X210817893Y-118817107D02*
X211817893Y-118817107D01*
X211817893Y-118817107D02*
X211817893Y-120337107D01*
X211817893Y-120337107D02*
X211767893Y-120337107D01*
X210207893Y-121117107D02*
X209877893Y-120877107D01*
X210207893Y-120637107D01*
X210207893Y-121117107D01*
G36*
X210207893Y-121117107D02*
G01*
X209877893Y-120877107D01*
X210207893Y-120637107D01*
X210207893Y-121117107D01*
G37*
%TO.C,U3*%
X205487893Y-134132107D02*
X205542893Y-134132107D01*
X205487893Y-138252107D02*
X205487893Y-134132107D01*
X205542893Y-138252107D02*
X205487893Y-138252107D01*
X215552893Y-134132107D02*
X215607893Y-134132107D01*
X215607893Y-134132107D02*
X215607893Y-138252107D01*
X215607893Y-138252107D02*
X215552893Y-138252107D01*
X205537893Y-138792107D02*
X205207893Y-139032107D01*
X205207893Y-138552107D01*
X205537893Y-138792107D01*
G36*
X205537893Y-138792107D02*
G01*
X205207893Y-139032107D01*
X205207893Y-138552107D01*
X205537893Y-138792107D01*
G37*
%TO.C,R7*%
X210469957Y-122492107D02*
X210015829Y-122492107D01*
X210469957Y-123962107D02*
X210015829Y-123962107D01*
%TO.C,C5*%
X208707893Y-108138359D02*
X208707893Y-107615855D01*
X210177893Y-108138359D02*
X210177893Y-107615855D01*
%TO.C,U1*%
X215922893Y-123827107D02*
X215922893Y-122877107D01*
X217322893Y-123827107D02*
X215922893Y-123827107D01*
X232922893Y-123827107D02*
X234322893Y-123827107D01*
X234322893Y-123827107D02*
X234322893Y-122877107D01*
X215922893Y-104877107D02*
X215422893Y-104877107D01*
X215922893Y-104377107D01*
X215922893Y-104877107D01*
G36*
X215922893Y-104877107D02*
G01*
X215422893Y-104877107D01*
X215922893Y-104377107D01*
X215922893Y-104877107D01*
G37*
%TO.C,R2*%
X246212893Y-124257107D02*
X246212893Y-125367107D01*
X246212893Y-136617107D02*
X246212893Y-135507107D01*
X244292893Y-125367107D02*
X248132893Y-125367107D01*
X248132893Y-135507107D01*
X244292893Y-135507107D01*
X244292893Y-125367107D01*
%TO.C,C6*%
X212187893Y-108138359D02*
X212187893Y-107615855D01*
X213657893Y-108138359D02*
X213657893Y-107615855D01*
%TO.C,C4*%
X247394145Y-108702107D02*
X246871641Y-108702107D01*
X247394145Y-110172107D02*
X246871641Y-110172107D01*
%TO.C,C3*%
X206781641Y-142222107D02*
X207304145Y-142222107D01*
X206781641Y-143692107D02*
X207304145Y-143692107D01*
%TO.C,R11*%
X230679957Y-126362107D02*
X230225829Y-126362107D01*
X230679957Y-127832107D02*
X230225829Y-127832107D01*
%TO.C,R3*%
X240132893Y-124257107D02*
X240132893Y-125367107D01*
X240132893Y-136617107D02*
X240132893Y-135507107D01*
X238212893Y-125367107D02*
X242052893Y-125367107D01*
X242052893Y-135507107D01*
X238212893Y-135507107D01*
X238212893Y-125367107D01*
%TD*%
%LPC*%
D12*
%TO.C,R8*%
X236450393Y-111967107D03*
X238275393Y-111967107D03*
%TD*%
%TO.C,R4*%
X181210393Y-116837107D03*
X183035393Y-116837107D03*
%TD*%
D13*
%TO.C,Q1*%
X224527893Y-133487107D03*
X224527893Y-135387107D03*
X226402893Y-134437107D03*
%TD*%
D14*
%TO.C,H3*%
X256392893Y-107807107D03*
%TD*%
D15*
%TO.C,C2*%
X201702893Y-117392107D03*
X201702893Y-123807107D03*
%TD*%
D16*
%TO.C,J2*%
X258112893Y-130197107D03*
D17*
X258112893Y-132737107D03*
%TD*%
D12*
%TO.C,R9*%
X236450393Y-108157107D03*
X238275393Y-108157107D03*
%TD*%
D18*
%TO.C,U5*%
X245202893Y-116607107D03*
X245702893Y-116607107D03*
X246202893Y-116607107D03*
X246702893Y-116607107D03*
X247202893Y-116607107D03*
X247202893Y-112307107D03*
X246702893Y-112307107D03*
X246202893Y-112307107D03*
X245702893Y-112307107D03*
X245202893Y-112307107D03*
%TD*%
D19*
%TO.C,J1*%
X186677893Y-121517107D03*
X186677893Y-127297107D03*
D20*
X187752893Y-121207107D03*
X187752893Y-122007107D03*
D21*
X187752893Y-123157107D03*
X187752893Y-124157107D03*
X187752893Y-124657107D03*
X187752893Y-125657107D03*
D20*
X187752893Y-126807107D03*
X187752893Y-127607107D03*
X187752893Y-127607107D03*
X187752893Y-126807107D03*
D21*
X187752893Y-126157107D03*
X187752893Y-125157107D03*
X187752893Y-123657107D03*
X187752893Y-122657107D03*
D20*
X187752893Y-122007107D03*
X187752893Y-121207107D03*
D22*
X187177893Y-120087107D03*
D23*
X182997893Y-120087107D03*
D22*
X187177893Y-128727107D03*
D23*
X182997893Y-128727107D03*
%TD*%
D24*
%TO.C,U2*%
X195432893Y-109532107D03*
X195432893Y-111832107D03*
D25*
X201732893Y-111832107D03*
D24*
X195432893Y-114132107D03*
%TD*%
D12*
%TO.C,R5*%
X181210393Y-132037107D03*
X183035393Y-132037107D03*
%TD*%
D26*
%TO.C,R6*%
X221975393Y-135329607D03*
X221975393Y-133504607D03*
%TD*%
D12*
%TO.C,R12*%
X224720393Y-127097107D03*
X226545393Y-127097107D03*
%TD*%
D27*
%TO.C,R1*%
X252232893Y-138057107D03*
X252232893Y-122817107D03*
%TD*%
D26*
%TO.C,R10*%
X205892893Y-108809607D03*
X205892893Y-106984607D03*
%TD*%
D28*
%TO.C,C7*%
X212922893Y-110847107D03*
X212922893Y-112747107D03*
%TD*%
D15*
%TO.C,C1*%
X195462893Y-117372107D03*
X195462893Y-123787107D03*
%TD*%
D29*
%TO.C,Q2*%
X209307893Y-120514607D03*
X211207893Y-120514607D03*
X210257893Y-118639607D03*
%TD*%
D14*
%TO.C,H4*%
X183402893Y-107787107D03*
%TD*%
D30*
%TO.C,U3*%
X206102893Y-138667107D03*
X207372893Y-138667107D03*
X208642893Y-138667107D03*
X209912893Y-138667107D03*
X211182893Y-138667107D03*
X212452893Y-138667107D03*
X213722893Y-138667107D03*
X214992893Y-138667107D03*
X214992893Y-133717107D03*
X213722893Y-133717107D03*
X212452893Y-133717107D03*
X211182893Y-133717107D03*
X209912893Y-133717107D03*
X208642893Y-133717107D03*
X207372893Y-133717107D03*
X206102893Y-133717107D03*
%TD*%
D14*
%TO.C,H2*%
X256362893Y-142917107D03*
%TD*%
D31*
%TO.C,R7*%
X211155393Y-123227107D03*
X209330393Y-123227107D03*
%TD*%
D32*
%TO.C,C5*%
X209442893Y-108827107D03*
X209442893Y-106927107D03*
%TD*%
D33*
%TO.C,U1*%
X216372893Y-105617107D03*
X216372893Y-106887107D03*
X216372893Y-108157107D03*
X216372893Y-109427107D03*
X216372893Y-110697107D03*
X216372893Y-111967107D03*
X216372893Y-113237107D03*
X216372893Y-114507107D03*
X216372893Y-115777107D03*
X216372893Y-117047107D03*
X216372893Y-118317107D03*
X216372893Y-119587107D03*
X216372893Y-120857107D03*
X216372893Y-122127107D03*
D34*
X219407893Y-123377107D03*
X220677893Y-123377107D03*
X221947893Y-123377107D03*
X223217893Y-123377107D03*
X224487893Y-123377107D03*
X225757893Y-123377107D03*
X227027893Y-123377107D03*
X228297893Y-123377107D03*
X229567893Y-123377107D03*
X230837893Y-123377107D03*
D33*
X233872893Y-122127107D03*
X233872893Y-120857107D03*
X233872893Y-119587107D03*
X233872893Y-118317107D03*
X233872893Y-117047107D03*
X233872893Y-115777107D03*
X233872893Y-114507107D03*
X233872893Y-113237107D03*
X233872893Y-111967107D03*
X233872893Y-110697107D03*
X233872893Y-109427107D03*
X233872893Y-108157107D03*
X233872893Y-106887107D03*
X233872893Y-105617107D03*
D35*
X222222893Y-111937107D03*
D36*
X222222893Y-112637107D03*
D35*
X222222893Y-113337107D03*
D36*
X222222893Y-114037107D03*
D35*
X222222893Y-114737107D03*
D36*
X222922893Y-111937107D03*
X222922893Y-113337107D03*
X222922893Y-114737107D03*
D35*
X223622893Y-111937107D03*
D36*
X223622893Y-112637107D03*
D35*
X223622893Y-113337107D03*
D36*
X223622893Y-114037107D03*
D35*
X223622893Y-114737107D03*
D36*
X224322893Y-111937107D03*
X224322893Y-113337107D03*
X224322893Y-114737107D03*
D35*
X225022893Y-111937107D03*
D36*
X225022893Y-112637107D03*
D35*
X225022893Y-113337107D03*
D36*
X225022893Y-114037107D03*
D35*
X225022893Y-114737107D03*
%TD*%
D27*
%TO.C,R2*%
X246212893Y-122817107D03*
X246212893Y-138057107D03*
%TD*%
D32*
%TO.C,C6*%
X212922893Y-108827107D03*
X212922893Y-106927107D03*
%TD*%
D14*
%TO.C,H1*%
X183412893Y-142947107D03*
%TD*%
D37*
%TO.C,C4*%
X248082893Y-109437107D03*
X246182893Y-109437107D03*
%TD*%
D38*
%TO.C,C3*%
X206092893Y-142957107D03*
X207992893Y-142957107D03*
%TD*%
D31*
%TO.C,R11*%
X231365393Y-127097107D03*
X229540393Y-127097107D03*
%TD*%
D27*
%TO.C,R3*%
X240132893Y-138057107D03*
X240132893Y-122817107D03*
%TD*%
%LPD*%
D39*
X179872893Y-105257107D02*
G75*
G02*
X180872893Y-104257093I1000007J7D01*
G01*
X179892893Y-145477107D02*
X179872893Y-105257107D01*
X180872893Y-104257107D02*
X258922893Y-104282107D01*
X180892893Y-146477157D02*
G75*
G02*
X179892893Y-145467107I7J1000057D01*
G01*
X258892893Y-146437107D02*
X180892893Y-146477157D01*
X258915786Y-104284214D02*
G75*
G02*
X259915786Y-105284214I14J-999986D01*
G01*
X259892893Y-145437107D02*
G75*
G02*
X258892893Y-146437093I-999993J7D01*
G01*
X259915786Y-105284214D02*
X259892893Y-145437107D01*
M02*
