M48
; DRILL file KiCad 10.0.0-rc1.1 date 2026-05-07T21:27:05
; FORMAT={-:-/ absolute / metric / decimal}
; #@! TF.CreationDate,2026-05-07T21:27:05+07:00
; #@! TF.GenerationSoftware,Kicad,Pcbnew,10.0.0-rc1.1
; #@! TF.FileFunction,MixedPlating,1,2
FMAT,2
METRIC
; #@! TA.AperFunction,Plated,PTH,ComponentDrill
T1C0.200
; #@! TA.AperFunction,Plated,PTH,ViaDrill
T2C0.254
; #@! TA.AperFunction,Plated,PTH,ViaDrill
T3C0.300
; #@! TA.AperFunction,Plated,PTH,ComponentDrill
T4C0.600
; #@! TA.AperFunction,Plated,PTH,ComponentDrill
T5C1.000
; #@! TA.AperFunction,Plated,PTH,ComponentDrill
T6C1.200
; #@! TA.AperFunction,NonPlated,NPTH,ComponentDrill
T7C0.650
; #@! TA.AperFunction,NonPlated,NPTH,ComponentDrill
T8C3.200
%
G90
G05
T1
X222.223Y-112.637
X222.223Y-114.037
X222.923Y-111.937
X222.923Y-113.337
X222.923Y-114.737
X223.623Y-112.637
X223.623Y-114.037
X224.323Y-111.937
X224.323Y-113.337
X224.323Y-114.737
X225.023Y-112.637
X225.023Y-114.037
T2
X201.963Y-144.927
X203.219Y-133.717
X218.603Y-106.897
X240.013Y-108.147
X246.183Y-108.147
T3
X190.693Y-120.467
X190.703Y-123.367
X190.703Y-127.607
X203.923Y-131.867
X203.923Y-138.657
X207.373Y-140.697
X208.633Y-140.717
X232.193Y-110.687
X232.203Y-109.427
X235.553Y-119.757
X236.283Y-115.777
X236.453Y-109.897
X241.893Y-111.957
X244.517Y-109.883
T5
X258.113Y-130.197
X258.113Y-132.737
T6
X240.133Y-122.817
X240.133Y-138.057
X246.213Y-122.817
X246.213Y-138.057
X252.233Y-122.817
X252.233Y-138.057
T7
X186.678Y-121.517
X186.678Y-127.297
T8
X183.403Y-107.787
X183.413Y-142.947
X256.363Y-142.917
X256.393Y-107.807
T4
G00X183.398Y-120.087
M15
G01X182.598Y-120.087
M16
G05
G00X183.398Y-128.727
M15
G01X182.598Y-128.727
M16
G05
G00X187.728Y-120.087
M15
G01X186.628Y-120.087
M16
G05
G00X187.728Y-128.727
M15
G01X186.628Y-128.727
M16
G05
M30
